<svg version="1.0" xmlns="http://www.w3.org/2000/svg" width="1386.667" height="1386.667" viewBox="0 0 1040 1040"><path d="M336.8 157.6c-.4.3-1.4.7-2.5.9-1 .2-1.9.4-2 .5-.2.2-.6.3-1 .4-2 .6-9.5 4-16.3 7.5-11.5 5.9-14.4 7.5-15.2 8.6-.4.5-1.1 1-1.5 1.1-1.4.1-7.3 3.9-7.3 4.6 0 .5-.5.8-1 .8-.6 0-1.6.5-2.3 1-.7.6-3.7 2.9-6.7 5.3-3 2.3-5.6 4.5-5.8 4.9-.2.5-.8.8-1.3.8s-1.7.8-2.7 1.7c-1 1-3.8 3.6-6.3 5.8-7.6 6.9-21.9 24.1-21.9 26.4 0 .6-.4 1.1-.8 1.1-2.2 0-15.2 29.6-16.8 38-.3 1.4-.7 3.3-1 4.2-.3 1-.7 2.8-.9 4-.2 1.3-.6 3.6-.9 5.2-.3 1.6-.8 6.7-1.2 11.5l-.7 8.5-12.2 12.1c-6.7 6.6-14.2 14.7-16.6 18-2.4 3.3-4.7 6.1-5.1 6.3-.5.2-.8.9-.8 1.5s-.6 1.8-1.4 2.6c-4.5 5.1-14.8 30.6-16 39.8-.3 2.1-.8 5.1-1.1 6.8-.4 1.6-.8 7.2-.9 12.3l-.3 9.2-5.9 6.1c-8.7 9-14.2 15.9-20.6 25.9-4.9 7.8-13.3 25.4-14.3 30-.2.8-.8 2.7-1.4 4.3-.6 1.5-1.3 4-1.6 5.5-1 4.4-1 4.7-1.6 5.7-.4.5-.5 2-.4 3.2.1 1.3-.1 2.3-.5 2.3-.3 0-.6.8-.6 1.7-.1 1-.5 5.2-1 9.3-.9 8.6-.9 26.2.1 33.5.4 2.7.8 6.2 1 7.8.1 1.5.5 3 .8 3.3.3.3-2.6 3.6-6.4 7.3-4.1 4.1-7.8 8.8-9.1 11.7-2.8 6.2-2.8 6.4-3.5 15.4-1.6 22 14.2 39.8 37.7 42.5 1.4.2 2.8.3 3.3.4.4.1.7 16.9.7 37.5 0 35.2.1 37.7 2 42.1 3.3 7.6 11.4 14.4 19.3 16.1 1.2.3 7.7.5 14.5.5 10.8 0 12.2.2 12.3 1.7 0 .9.2 2.6.5 3.7.6 2.7 1.3 8 1.9 14 .3 2.7.7 6.6.9 8.5.3 1.9.7 6 1.1 9 1.3 11.4 1.9 16.7 3.1 26.5.4 2.7.8 6.6 1 8.5.2 1.9.5 5.1.8 7 .2 1.9.7 6.2 1.1 9.5.7 6.1 1.1 9.6 2 17.2.3 2.4.7 6.4 1 9 .3 2.7.8 6.1 1 7.8.2 1.6.7 5.7 1 9 .3 3.3.8 7.3 1.1 9 .3 1.6.7 5 .9 7.5.2 2.5.7 6.7 1 9.5.4 2.7.8 6.4.9 8 .1 1.7.4 3.5.7 4 .2.6.4 2.7.4 4.7-.1 2.1.2 3.8.5 3.8s.6 1.9.7 4.2c0 2.4.4 6.5.8 9.3.4 2.7.9 6.6 1 8.5.2 1.9.4 3.5.5 3.5.1 0 .3 2 .5 4.5.4 4.4.9 8.2 2 17 .3 2.5.8 6.7 1 9.5.3 2.7.7 6.6 1 8.5.3 1.9.7 5.5 1 8 .3 2.5.8 5.8 1 7.5.4 3.1 1.3 11.5 2 17.5.2 1.9.6 5.7 1 8.5.3 2.7.7 6.6.9 8.5.7 6.9 3.6 12.8 8.7 17.5 3.4 3.1 5.8 4.5 10.9 6.3.8.3 35.9.7 78 .8 85.4.3 82.2.5 90.4-6.7 4.4-3.9 8.6-9.9 6.9-9.9-.5 0-.2-.4.4-.8.7-.4 1.5-2.7 1.8-5 .3-2.3.7-6 1-8.3.3-2.3.8-4.6 1.2-5.2.4-.6.1-.7-.7-.2-.9.5-1.1.4-.6-.3.9-1.5 1.2-3.2 2-11.4.4-3.7.9-7.7 1.1-9 .2-1.3.7-5 1-8.3.4-3.3.8-7.4 1-9 1.1-9.2 1.6-13.5 2.1-17.5.4-2.5.8-6.1.9-8 .2-1.9.4-3.5.5-3.5.1 0 .3-1.6.5-3.5.1-1.9.5-5.5.9-8 .3-2.5.8-6.8 1.1-9.5.6-6 1.3-11.9 2-17.7.3-2.4.7-6.3 1-8.8.3-2.5.7-5.9.9-7.5.2-1.7.7-5.9 1.1-9.5.4-3.6.8-7.2 1-8 .2-.8.6-4.9 1-9s.9-8.4 1.1-9.5c.2-1.1.6-4.7.9-8 .3-3.2.7-7.1 1-8.5.2-1.4.7-5 1-8 1.1-10.3 1.6-14.5 2.2-18.5.3-2.2.7-5.4.8-7 .2-1.7.6-5.5 1-8.5.5-3 .9-7.3 1.1-9.5.1-2.2.3-4 .4-4 .1 0 .4-2 .5-4.5.2-2.5.4-4.5.5-4.5.1 0 .3-1.4.5-3 1-10.3 1.5-15.5 2.1-19 .3-2.2.7-5.4.9-7 .2-1.7.4-3.2.5-3.5.2-.6.6-3.7.8-7.3l.2-2.7 11.8.1c12.4.1 19.5-.7 20-2.2.2-.5 1-.9 1.7-.9 2.1 0 8.4-5.8 11.2-10.2 1.3-2.1 2.6-5.8 3-8.1.3-2.3.6-20.1.6-39.5.1-19.3.3-35.3.6-35.3.3-.1 1.5-.3 2.6-.4 11.5-1.4 19.9-5.2 26.8-12.2 10.7-10.6 14.4-26.6 9.7-41.3-1.2-3.8-2.6-7-3.1-7s-.9-.5-.9-1.1c0-.6-1.4-2.8-3-4.9l-3-3.8 2-5.2c1.1-2.8 2.5-6.9 3-9.1.6-2.1 1.4-5.6 1.9-7.7 1.2-4.4 2-8.6 2.7-12.7.2-1.7.7-4.1 1.1-5.5 1-4.3 1.2-33.2.2-38.3-.5-2.7-1.1-6.3-1.3-8-.3-1.8-.8-4.6-1.1-6.2-.4-1.7-.8-3.5-.9-4-.4-1.8-1.7-5.9-2.5-8-.5-1.1-1.4-3.8-2.1-6-2.6-8.5-15.7-32.5-20.9-38.7-.6-.7-2.8-3.5-4.9-6.3-7.4-9.9-24.7-27.8-35.7-37-3.3-2.8-7.1-6-8.5-7.2-1.4-1.2-8.6-6.7-16-12.2-7.4-5.6-14-10.5-14.6-11-.6-.5-3.5-2.6-6.5-4.7-29.2-20.6-42.3-30.6-50.4-38.9-11-11.1-15.9-18-22.5-31.4-8-16.1-11.4-31.3-11.4-50.1 0-11.6.9-19.6 2.9-28 1.8-7.2 1.6-10.5-.7-14-2.3-3.3-4.7-5-9.4-6.4-1.1-.3-2.3-.4-2.6 0zm-16.2 48.7c0 7.2.4 14.8.7 16.7.3 1.9.9 5.7 1.3 8.5.3 2.7 1 6 1.5 7.2.5 1.3.7 2.3.4 2.3-.2 0 1.2 4.6 3.1 10.2 3.8 11 9.8 23.6 14.5 30.6 1.6 2.4 2.9 4.7 2.9 5.3 0 .5.4.9.8.9s1.5 1.2 2.5 2.7c1.7 2.9 5.1 6.8 12.2 14.3 5.4 5.7 8.2 8.2 18 15.8 4.4 3.5 8.5 6.6 9 7 1.7 1.4 22.5 15.6 24.2 16.7.9.5 2.8 2 4.2 3.2 1.4 1.3 2.9 2.3 3.3 2.3.3 0 1.3.6 2 1.2.7.7 3.6 2.9 6.3 4.8 2.8 1.9 5.6 4 6.3 4.7.7.7 2.6 2 4.2 3 1.7.9 3 2.1 3 2.5 0 .4.6.8 1.4.8.8 0 1.6.4 1.8.9.2.5 2.9 2.9 6.1 5.4 11.6 9 23.4 20.1 33.6 31.6 3.1 3.5 6.3 7.2 7.2 8.1 3.1 3.3 14.7 21.6 17.7 28 3.9 8.3 7.3 17 6.6 17-.3 0-.2.6.3 1.2.4.7.8 1.7.9 2.3.1.5.6 2.8 1.2 5 2.6 9.5 3.5 17.3 3.5 30 0 11.5-.3 14.1-2.9 25.9-1.6 7.6-1.8 8.3-2.6 10.6-.3.8-1.3 3.6-2.3 6.2-.9 2.7-2 4.8-2.3 4.9-3.8.6-29.2.2-29.2-.4 0-.5-.5-.5-1.2-.1-1.7 1.1-13.8 1.1-13.8.1 0-.5-.5-.5-1.2-.1-1.6 1-13.9 1.1-14.5.1-.2-.4-1.2-.3-2.2.3-1 .5-2 .7-2.3.5-.2-.3-6.7-.7-14.4-1-7.6-.3-16.1-.7-18.9-.9-8.6-.7-19.9-1.8-21.9-2.2-1-.2-4.4-.6-7.5-.9-3.1-.4-6.3-.8-7.1-1-.8-.2-3.7-.7-6.5-1.1-2.7-.3-5.9-.8-7-1-2.2-.4-6.6-1.2-10.7-1.8-1.5-.3-3.1-.7-3.6-.9-.4-.3-2.7-.8-5-1.2-2.3-.3-10.7-2.4-18.5-4.6-7.8-2.2-14.6-4.1-15.2-4.2-.5-.2-3.5-1.2-6.5-2.2-3-1.1-5.7-2-6-2-1.6-.5-4.9-1.8-7.3-3.1-1.6-.7-3.3-1.4-3.9-1.4-1.9 0-27.3-12.7-32.7-16.4-2.9-2-5.7-3.6-6.2-3.6s-.9-.4-.9-.9-.8-1.2-1.7-1.5c-1-.3-2.9-1.6-4.3-2.9-1.4-1.3-3.2-2.7-4.1-3.3-4.4-2.5-17.1-15.8-25.8-27-1.8-2.2-9.1-15.6-9.1-16.5 0-.6-.7-2.4-1.6-4-.8-1.7-1.7-3.8-1.9-4.7-.2-1-1.1-4.2-1.9-7.2-3.9-14.6-3.9-32.1 0-46.1.8-3 1.6-5.9 1.7-6.4.2-.6.5-1.5.8-2 .4-.6.9-2.3 1.3-3.9.4-1.7 1.5-4.1 2.5-5.5.9-1.4 2.6-4.5 3.6-6.8 1.1-2.4 2.3-4.3 2.8-4.3.4 0 .7-.7.7-1.5s.5-1.5 1-1.5c.6 0 1-.7 1-1.5s.7-1.5 1.7-1.5c.9 0 1.4-.3 1-.6-.7-.7.2-1.7 6.5-8.1l4.2-4.1 1.9 5.6c8 23.9 24.7 44.6 50.4 62.6 2.9 2 5.5 3.6 5.8 3.6.3 0 1.1.5 1.8 1 1.8 1.6 12.7 7.9 12.7 7.4 0-.2 1.8.7 4 2.1 2.2 1.4 4.1 2.5 4.4 2.5.2 0 4.6 2 9.7 4.4 9.1 4.2 46.9 19.5 49.9 20.1.8.2 1.7.4 2 .5.3.1.8.2 1.3.1.4 0 .7.3.7.8 0 1.1 5.7 2.4 9 2.1 3.6-.3 8.8-3.7 10.4-6.8.8-1.5 1.3-4.6 1.2-7-.2-3.3-1-5-3.6-7.7-1.9-1.9-4.1-3.5-5-3.5-1 0-3.1-.7-4.9-1.6-1.7-.9-3.7-1.7-4.4-1.8-.7-.2-2.5-.9-4.2-1.5-1.6-.7-3.4-1.4-4-1.5-1.4-.4-4.5-1.6-8.2-3.2-1.7-.8-3.4-1.4-3.8-1.4-1.1 0-19.6-8-30.5-13.1-11.8-5.7-26.3-13.8-26.8-15.1-.2-.4-.8-.8-1.4-.8-1.6 0-12.9-9-19.9-16-3.6-3.6-8.7-9.6-11.3-13.3-4.6-6.9-9.6-16.7-9.6-19 0-.7-.4-1.7-.9-2.2-2.4-2.7-4.5-16.1-4.5-29.5-.1-14.5 2.3-29.1 6.3-38.5 4.7-10.8 11.6-23.2 16.4-29.2 8.1-10.1 32.4-30.4 43-35.8 2.1-1.1 4.3-2.6 4.9-3.3.6-.6 1.3-1.2 1.7-1.2.3 0 .6 6 .7 13.3zM174.4 447c4 9.7 5.8 13.4 10.5 20.5 15.9 24.6 40 45.7 69.3 60.7 3.5 1.7 7.1 3.9 8.2 4.7 1 .9 2 1.5 2.2 1.3.2-.1 2.6.7 5.2 1.8 11.3 5.1 30.9 12.2 32.2 11.8.3-.1 1.5.4 2.8 1.1 1.3.7 3.2 1.4 4.3 1.7 3 .6 5.2 1.2 8.7 2.3 1.7.5 3.2.8 3.2.5 0-.3.9 0 2 .6s3.3 1.3 4.8 1.5c1.5.2 5.4 1.1 8.7 1.9 3.3.8 7.7 1.7 9.9 2 2.1.4 4.2.9 4.7 1.1.4.3 2.9.7 5.6.9 2.6.2 5.5.7 6.3 1 .8.3 3.5.8 6 1.1 2.5.2 6.1.6 8.1.9 2 .3 5.8.7 8.4 1 2.5.3 5.1.9 5.7 1.2.7.5.8.2.3-.6s-.4-1.1.2-.7c1.5.9 6.3 1.6 17.3 2.3 19.2 1.2 24.2 1.3 62.1 1.5 28.8.1 39.3.5 41.6 1.4 7.8 3.3 11.2 14.6 6.4 21.4-4.4 6.2-6 6.5-33.6 6.6-13.7.1-26.1.5-27.3.9-4.5 1.5-8.1 6.4-8.2 11.2-.2 4.2.3 5.7 2.7 8.7 3.2 4.1 7.6 5.4 17.6 5.2l8.7-.1v3c.2 26.3 0 67-.3 67.3-.4.3-301.9.6-309.2.3-.6 0-.9-12-.9-34.3.1-18.8.2-34.7.3-35.2.1-.7 40.7-1.1 119.9-1.2 65.8 0 120.4-.3 121.3-.5 9.9-2.4 12.5-16.2 4.2-22.5l-3.6-2.7-136.6-.1c-129.7 0-136.8-.1-140.3-1.9-10.9-5.3-10.1-21.2 1.3-26 2.5-1 8-1.4 20.3-1.4 15.9-.1 17-.2 20.2-2.4 6-4.1 7.5-12.1 3.4-17.8-3.2-4.6-6.1-5.3-20.3-5.5-7-.1-12.9-.4-13.1-.6-1.8-1.9-2.9-30-1.2-31.1.8-.6.8-.8 0-.8-1.1 0-1.1-2.7.1-8.8.3-1.5.8-4.3 1.1-6.2 1-5.9 3.5-14.8 5.4-19.5 4.7-11.1 6.7-15.6 8.7-18.7 1.3-2.1 2.3-4.2 2.3-4.7s.3-1.1.8-1.3c.4-.2 2.3-2.7 4.2-5.5 1.9-2.9 3.9-5.2 4.4-5 .4.1 1.8 2.7 3 5.7zM303 721.5c0 .8-4 4.5-4.8 4.5-.6 0-1.4.9-1.7 2-.3 1.1-.9 2-1.3 2s-7.3 6.5-15.4 14.5l-14.6 14.4-18.6-18.3c-10.2-10-18.6-18.5-18.6-18.7 0-.3 16.9-.5 37.5-.5s37.5.1 37.5.1zm116.2 1c-.2.5-8.5 9-18.3 18.7l-18 17.8-19.1-18.8-19-18.8h37.3c24.5.1 37.3.4 37.1 1.1zm-74.6 35.3 19.7 19.4-20.1 19.9-20 19.9-20.3-20-20.2-20 19.9-19.5c10.9-10.7 20.2-19.3 20.6-19.2.4.1 9.6 8.9 20.4 19.5zm81.8-2.6c-.2 1.8-.7 6-1 9.3-.3 3.3-.7 7.1-1 8.5-.3 1.4-.7 4.7-.9 7.5-.2 2.7-.4 5-.5 5-.1 0-.3 2.2-.5 4.9-.2 2.6-.6 5.1-.9 5.4-.6.6-9.7-7.7-16-14.6l-4-4.3 12.5-12.4c6.8-6.9 12.5-12.5 12.6-12.5.1 0 0 1.5-.3 3.2zm-140.9 60.3 20 19.5-19.5 19.5c-10.7 10.7-20 19.5-20.5 19.5-2 0-33.6-32-34.1-34.5-1.7-9.3-2.7-7.5 15.9-26.2 9.5-9.5 17.4-17.2 17.7-17.3.3 0 9.5 8.8 20.5 19.5zm115.5-2.6 17.1 16.8-.6 4.4c-.3 2.4-.7 5.2-.9 6.2-.2 1.6-32.2 33.7-33.5 33.7-1.1 0-3.6-2-2.6-2 .6 0-.3-.9-2-2-1.6-1.1-2.7-2-2.2-2 .4 0-1-1.5-3-3.4-2.1-1.9-9.8-9.3-17.1-16.5L343 835l17.2-17.1c16.5-16.3 22.5-21.9 23.3-21.9.3 0 8.1 7.6 17.5 16.9zm-56.6 60.7 19.9 19.6-20 19.8-20.1 19.9-20.2-19.8-20.2-19.8 19.8-19.6c11-10.8 20.1-19.7 20.4-19.7.3 0 9.5 8.8 20.4 19.6zM246 893.2c0 .7-3.2 4.2-6.2 6.5-1.2 1-1.5 1-1.5 0 0-.6-.3-4.6-.8-8.7l-.7-7.5 4.6 4.5c2.5 2.4 4.6 4.8 4.6 5.2zm165.6-8.4c-.4.7-1.7 10.9-1.9 14.9 0 1-.3 1-1.5 0-2.7-2.2-6.2-5.8-6.2-6.4 0-.9 8.4-9.2 9.3-9.3.5 0 .6.4.3.8zM287.9 934c20.1 20 24.7 25.2 20.7 23.7-.8-.3-1.7-.3-2 0-.8.8-6.8.8-8.9 0-.9-.3-1.9-.2-2.2.3-.4.6-1.3.7-2.4.1-.9-.5-2.3-.6-3-.1-.8.4-2.6.4-4.2 0-1.5-.5-3-.6-3.3-.2-.8.7-6.9.7-8.9-.1-.9-.3-1.9-.2-2.2.3-.4.6-1.3.7-2.4.1-.9-.5-2.3-.6-3-.1-.8.4-2.7.4-4.2 0-1.6-.5-3.1-.5-3.4 0-.3.5-1.6.5-3 0-1.5-.6-2.7-.6-3 0-.4.7-1.3.6-2.5 0s-2-.6-2.2 0c-.2.5-.8.6-1.4.2-1.1-.7-2-5.5-3-16.2-.3-2.5-.7-5.1-1-5.9-.4-1.3 21-24 22.8-24.1.4 0 10.6 9.9 22.7 22zm97.7-20.1c1.3 1 2 2.1 1.7 2.5-.3.3-.2.6.3.6.6 0 4.9 3.8 9.6 8.5 6.7 6.6 8.6 9 8.3 10.8-.2 1.2-.7 4.7-1 7.7-.3 3-.7 7-1 8.8-.2 1.9-.6 3.7-1 4-.7.8-63.5 1.2-64.8.5-.7-.4 44.1-45.3 45.1-45.3.2 0 1.5.8 2.8 1.9zm13.6 70.5c.3.5.5 1.7.3 2.7-.2 1-.6 4.4-1 7.6-1 10.1-1.6 14.8-2.1 16.5-.5 1.7-4.8 1.8-72.4 1.8h-72l-.5-2.3c-.2-1.2-.7-4.7-1-7.7-.7-7.5-1.5-14.1-2-16.7-.4-1.5 0-2.3 1.2-2.5 4.2-.8 148.9-.2 149.5.6z"/><path d="M612.8 808.5c-.2.2-5.9.6-12.8.9-6.9.3-13.4.8-14.5 1-1.1.2-4.5.7-7.6 1-5.9.7-7.2.9-15.4 2.6-6 1.2-7.7 1.6-13.5 3.1-2.5.6-4.9 1.2-5.5 1.3-.5.1-1.4.4-2 .7-.5.3-4.8 1.8-9.4 3.4-22.6 7.3-41 19.1-55.8 35.8-2.3 2.6-3.9 4.7-3.5 4.7.4 0 .2.4-.5.8-1.7 1.1-11.1 17.7-11.9 21-.4 1.5-1 3.1-1.4 3.7-1 1.5-3.1 8.6-3.5 12-.2 1.6-.4 3-.5 3-1.7 0-2.2 31.4-.6 39.5 2.3 11.3 5.4 19.4 11.7 29.9 10.2 17.3 36.3 35.8 63 44.8 6.8 2.3 13.7 4.4 15.2 4.7 1.6.3 4.3.9 6 1.5 8.5 2.7 28.1 5.8 42.7 6.8 11.9.9 49.9.8 59.5 0 12.5-1.1 23.3-2.6 30.5-4.3 1.4-.3 3.6-.8 4.9-1 2.8-.6 12.9-3.1 18.1-4.5 1.9-.5 4.2-1.1 5-1.3 1.2-.2 1.5-2.4 1.3-12.7 0-6.8-.2-14.2-.3-16.4-.4-8.1-.3-8.3 3.2-4 3.3 4 10.8 11.7 14.4 14.5 10.6 8.6 31.1 18.6 43.9 21.6.6.1 4.4 1.1 8.5 2.2 4.1 1.2 9.1 2.3 11 2.6 1.9.3 4.4.8 5.6 1 9 1.9 23.2 2.8 44.4 2.9 24.3.1 36.4-.9 52.5-4.3 2.8-.6 5.9-1.2 7.1-1.4 3.1-.6 18.6-4.6 20.4-5.3.8-.3 2.3-.8 3.4-1 3-.5 20.5-9.2 22.9-11.3 1.2-1.1 3-2.5 4.1-3.3 1.9-1.4 2-2 3.1-17.7.3-4.1.7-10.2 1-13.5.3-3.3.7-9.6 1.1-14 .3-4.4 1.1-8.5 1.7-9 .7-.6 1.2-2.7 1.2-4.8 0-2 .2-3.7.5-3.7s.5-2.8.6-6.3c0-3.4.4-10.5.8-15.7 1.9-25 .1-37-8.2-54-1.5-3-3-5.7-3.3-6-.3-.3-1.2-1.5-1.8-2.8-4.2-8-19.8-22.6-31.1-29.1-4.9-2.9-10.5-5.5-11.2-5.3-.5.1-.8-.3-.8-.9 0-.6-.7-.9-1.5-.6-.8.4-1.7.2-2-.3-.9-1.5-22.5-8-31.5-9.4-1.9-.3-4.6-.8-6-1-11-2.1-40.7-2.2-54-.2-1.9.3-5.4.8-7.7 1-6 .8-21.3 4.3-27 6.2-2.6.9-5.2 1.8-5.8 1.9-6 1.4-22.1 9.8-31.2 16.1-7.6 5.3-7 4.8-15.1 12.7l-6 5.9.4-6.4c.9-13.9 1.4-20.4 1.9-22.4.5-2.3-.8-2.9-8-4.1-1.6-.3-3.6-1-4.2-1.5-.7-.6-1.3-.8-1.3-.5 0 .3-1.5.1-3.2-.3-1.8-.5-4.6-1.2-6.3-1.4-1.6-.3-4.1-.8-5.5-1.1-12.3-2.7-22.7-4.3-32.2-5.1-4-.3-7.5-.7-7.9-1-.4-.2-8-.6-17-1-9-.3-17.9-.7-19.6-.8-1.8-.2-3.4-.2-3.5-.1zm27.2 35.9c8.9.6 23.5 2.2 28.9 3.1 6.2 1.1 11.6 1.8 11.6 1.5 0-.2 1 .2 2.2.9 1.7.9 2.1 1.8 1.7 3.9-.6 3.6-1.1 8.8-1.3 13.3-.1 3.6-.2 3.6-3.8 3.3-2.1-.2-5.6-.6-7.8-.9-8.7-1.3-42.8-.7-51 .9-1.1.2-4.2.7-7 1-6.6.9-18.5 4.2-24.4 6.8-2.5 1.2-4.9 2.1-5.3 2-.5-.1-.8.2-.8.8 0 .5-.5 1-1.1 1-2.6 0-16.9 13.1-16.9 15.5 0 .6-.8 2.2-1.7 3.5-1 1.4-1.9 2.9-2 3.5-.1.5-.7 3-1.3 5.5-1.5 6-.7 20.3 1.5 26.5 1.9 5.4 6.8 13.5 10.6 17.5 8.6 8.9 24.7 16.6 38.7 18.5 1.5.2 2.7.4 2.7.5 0 .6 13.5 1.2 26 1.2 17.1 0 27.7-.6 29.3-1.6.7-.4 1.2-.3 1.2.3 0 .7.8.7 2.6.1 1.4-.6 2.9-.8 3.3-.5.4.2.9 4.7.9 9.9.2 10.4.6 9.8-6.8 11-1.9.3-4.9.8-6.6 1.1-11.5 1.9-57 2.6-71.9 1.2-6.8-.7-21.7-3-26.2-4.1-2.8-.7-6.1-1.5-8.8-2-15.1-3.2-35.6-12.1-46.1-20.1-15.2-11.6-21.2-22.9-22.8-42.8-.1-1.5.2-2.7.7-2.7.5 0 .4-.6-.2-1.3-.6-.8-.9-1.6-.7-1.8.2-.2.6-2.9 1-5.9 1.2-10.8 4.8-20.5 11.2-29.6 4.6-6.6 15.9-17.4 18.1-17.4.7 0 1.3-.4 1.3-.8 0-1.1 20.1-11.1 23.4-11.6.6-.1 1.6-.5 2.2-.8.6-.4 2.2-.9 3.6-1.2 1.5-.2 3.5-.9 4.5-1.4 1-.6 2-1 2.3-1 .3 0 2.3-.4 4.5-.8 5.1-1 5.4-1.1 5.8-1.4.3-.2 2.4-.6 11-2 4-.6 8.3-1.3 9.7-1.6 1.4-.2 7.5-.7 13.5-1 6.1-.4 11.1-.7 11.2-.8.4-.3 20.9.2 29.3.8zm214.3 0c7.7.7 20.2 3 24 4.5 1.5.6 2.7.7 2.7.4 0-.4.5-.2 1.2.5s1.8 1.2 2.6 1.2c2.2 0 17.7 7.5 21.9 10.6 11.6 8.6 20.5 22.4 22.1 34.4.6 4.5.6 7.9.4 15.6l-.2 4.1-19.2-.2c-10.6-.1-19.6-.3-19.9-.4-.3 0-.6-4.5-.7-9.9 0-5.3-.1-9.7-.2-9.7s-.3-1.1-.4-2.5c-1-8.2-3.9-16.8-7.1-20.8-10.9-14-30.7-20.1-51-15.7-17.8 3.8-33.9 21.7-37 41-.2 1.1-.7 3.8-1 6-.4 2.2-.8 4.7-1 5.5-.2.8-.4 2.5-.4 3.7-.1 1.9-.7 2.3-3.1 2.3-1.6 0-3 .5-3 1.1 0 3.2 6.4 25.2 8.9 30.5 3.2 6.9 4.8 9 11.2 15.4 5.3 5.3 7.3 6.8 12 9.4 14.3 8 30.6 11.7 51.4 11.6 13.8-.1 14.7-.2 32.9-3.6 1.3-.2 6.3-1.5 11.1-2.9 4.7-1.4 9-2.3 9.4-2.1.4.3.5 2.4.2 4.8-.5 3.7-1.1 4.5-4.1 5.9-1.9.9-5.7 2.1-8.5 2.8-2.7.7-5.7 1.5-6.5 1.8-.8.3-2.2.7-3 .8-3.7.6-8.4 1.6-8.9 1.9-.3.2-3.1.7-6.1 1.1-3 .4-5.8.9-6.2 1.1-2.7 1.7-46.2 2.4-61.8 1-10.1-.9-27-4.1-32.2-6.1-2.1-.8-3.8-1.2-3.8-.9 0 .4-.7.1-1.5-.6s-1.5-1-1.5-.7c0 .6-9-3.1-15.5-6.5-24.7-12.8-35.8-37.4-30.8-68.5 4.6-29.1 19.2-46.5 49.8-59.3 5.4-2.3 16.9-5.3 25.1-6.6 2-.3 4.6-.8 5.8-1 1.1-.2 6.2-.7 11.1-1 5-.4 9.1-.7 9.2-.8.4-.3 15.8.2 21.6.8zm-185.3 60c4.1.3 8.6.9 10 1.1 4.2.8 11.4 1.7 14 1.9 3.3.1 3.9 1.1 3.3 6-.3 2.2-.5 8-.6 12.7 0 5.4-.4 8.6-1.1 8.6-1 0-7.1.9-12.6 1.8-1.4.3-4.7.7-7.5.9-2.7.3-7.7.8-11 1.2-11.5 1.1-36.1 1.1-44.6-.2-9.5-1.4-18.3-4.9-21.6-8.5-3.4-3.8-4.5-9.4-2.6-13.4 3-6.2 16.6-10.5 38.3-12.1 4.7-.4 8.6-.7 8.7-.8.5-.4 20.7.2 27.3.8z"/></svg>