<?xml version="1.0" standalone="no"?>
<!DOCTYPE svg PUBLIC "-//W3C//DTD SVG 20010904//EN"
 "http://www.w3.org/TR/2001/REC-SVG-20010904/DTD/svg10.dtd">
<svg version="1.0" xmlns="http://www.w3.org/2000/svg"
 width="1040.000000pt" height="1040.000000pt" viewBox="0 0 1040.000000 1040.000000"
 preserveAspectRatio="xMidYMid meet">
<metadata>
Created by potrace 1.14, written by Peter Selinger 2001-2017
</metadata>
<g transform="translate(0.000000,1040.000000) scale(0.100000,-0.100000)"
fill="#000000" stroke="none">
<path d="M3368 8824 c-4 -3 -14 -7 -25 -9 -10 -2 -19 -4 -20 -5 -2 -2 -6 -3
-10 -4 -20 -6 -95 -40 -163 -75 -115 -59 -144 -75 -152 -86 -4 -5 -11 -10 -15
-11 -14 -1 -73 -39 -73 -46 0 -5 -5 -8 -10 -8 -6 0 -16 -5 -23 -10 -7 -6 -37
-29 -67 -53 -30 -23 -56 -45 -58 -49 -2 -5 -8 -8 -13 -8 -5 0 -17 -8 -27 -17
-10 -10 -38 -36 -63 -58 -76 -69 -219 -241 -219 -264 0 -6 -4 -11 -8 -11 -22
0 -152 -296 -168 -380 -3 -14 -7 -33 -10 -42 -3 -10 -7 -28 -9 -40 -2 -13 -6
-36 -9 -52 -3 -16 -8 -67 -12 -115 l-7 -85 -122 -121 c-67 -66 -142 -147 -166
-180 -24 -33 -47 -61 -51 -63 -5 -2 -8 -9 -8 -15 0 -6 -6 -18 -14 -26 -45 -51
-148 -306 -160 -398 -3 -21 -8 -51 -11 -68 -4 -16 -8 -72 -9 -123 l-3 -92 -59
-61 c-87 -90 -142 -159 -206 -259 -49 -78 -133 -254 -143 -300 -2 -8 -8 -27
-14 -43 -6 -15 -13 -40 -16 -55 -10 -44 -10 -47 -16 -57 -4 -5 -5 -20 -4 -32
1 -13 -1 -23 -5 -23 -3 0 -6 -8 -6 -17 -1 -10 -5 -52 -10 -93 -9 -86 -9 -262
1 -335 4 -27 8 -62 10 -78 1 -15 5 -30 8 -33 3 -3 -26 -36 -64 -73 -41 -41
-78 -88 -91 -117 -28 -62 -28 -64 -35 -154 -16 -220 142 -398 377 -425 14 -2
28 -3 33 -4 4 -1 7 -169 7 -375 0 -352 1 -377 20 -421 33 -76 114 -144 193
-161 12 -3 77 -5 145 -5 108 0 122 -2 123 -17 0 -9 2 -26 5 -37 6 -27 13 -80
19 -140 3 -27 7 -66 9 -85 3 -19 7 -60 11 -90 13 -114 19 -167 31 -265 4 -27
8 -66 10 -85 2 -19 5 -51 8 -70 2 -19 7 -62 11 -95 7 -61 11 -96 20 -172 3
-24 7 -64 10 -90 3 -27 8 -61 10 -78 2 -16 7 -57 10 -90 3 -33 8 -73 11 -90 3
-16 7 -50 9 -75 2 -25 7 -67 10 -95 4 -27 8 -64 9 -80 1 -17 4 -35 7 -40 2 -6
4 -27 4 -47 -1 -21 2 -38 5 -38 3 0 6 -19 7 -42 0 -24 4 -65 8 -93 4 -27 9
-66 10 -85 2 -19 4 -35 5 -35 1 0 3 -20 5 -45 4 -44 9 -82 20 -170 3 -25 8
-67 10 -95 3 -27 7 -66 10 -85 3 -19 7 -55 10 -80 3 -25 8 -58 10 -75 4 -31
13 -115 20 -175 2 -19 6 -57 10 -85 3 -27 7 -66 9 -85 7 -69 36 -128 87 -175
34 -31 58 -45 109 -63 8 -3 359 -7 780 -8 854 -3 822 -5 904 67 44 39 86 99
69 99 -5 0 -2 4 4 8 7 4 15 27 18 50 3 23 7 60 10 83 3 23 8 46 12 52 4 6 1 7
-7 2 -9 -5 -11 -4 -6 3 9 15 12 32 20 114 4 37 9 77 11 90 2 13 7 50 10 83 4
33 8 74 10 90 11 92 16 135 21 175 4 25 8 61 9 80 2 19 4 35 5 35 1 0 3 16 5
35 1 19 5 55 9 80 3 25 8 68 11 95 6 60 13 119 20 177 3 24 7 63 10 88 3 25 7
59 9 75 2 17 7 59 11 95 4 36 8 72 10 80 2 8 6 49 10 90 4 41 9 84 11 95 2 11
6 47 9 80 3 32 7 71 10 85 2 14 7 50 10 80 11 103 16 145 22 185 3 22 7 54 8
70 2 17 6 55 10 85 5 30 9 73 11 95 1 22 3 40 4 40 1 0 4 20 5 45 2 25 4 45 5
45 1 0 3 14 5 30 10 103 15 155 21 190 3 22 7 54 9 70 2 17 4 32 5 35 2 6 6
37 8 73 l2 27 118 -1 c124 -1 195 7 200 22 2 5 10 9 17 9 21 0 84 58 112 102
13 21 26 58 30 81 3 23 6 201 6 395 1 193 3 353 6 353 3 1 15 3 26 4 115 14
199 52 268 122 107 106 144 266 97 413 -12 38 -26 70 -31 70 -5 0 -9 5 -9 11
0 6 -14 28 -30 49 l-30 38 20 52 c11 28 25 69 30 91 6 21 14 56 19 77 12 44
20 86 27 127 2 17 7 41 11 55 10 43 12 332 2 383 -5 27 -11 63 -13 80 -3 18
-8 46 -11 62 -4 17 -8 35 -9 40 -4 18 -17 59 -25 80 -5 11 -14 38 -21 60 -26
85 -157 325 -209 387 -6 7 -28 35 -49 63 -74 99 -247 278 -357 370 -33 28 -71
60 -85 72 -14 12 -86 67 -160 122 -74 56 -140 105 -146 110 -6 5 -35 26 -65
47 -292 206 -423 306 -504 389 -110 111 -159 180 -225 314 -80 161 -114 313
-114 501 0 116 9 196 29 280 18 72 16 105 -7 140 -23 33 -47 50 -94 64 -11 3
-23 4 -26 0z m-162 -487 c0 -72 4 -148 7 -167 3 -19 9 -57 13 -85 3 -27 10
-60 15 -72 5 -13 7 -23 4 -23 -2 0 12 -46 31 -102 38 -110 98 -236 145 -306
16 -24 29 -47 29 -53 0 -5 4 -9 8 -9 4 0 15 -12 25 -27 17 -29 51 -68 122
-143 54 -57 82 -82 180 -158 44 -35 85 -66 90 -70 17 -14 225 -156 242 -167 9
-5 28 -20 42 -32 14 -13 29 -23 33 -23 3 0 13 -6 20 -12 7 -7 36 -29 63 -48
28 -19 56 -40 63 -47 7 -7 26 -20 42 -30 17 -9 30 -21 30 -25 0 -4 6 -8 14 -8
8 0 16 -4 18 -9 2 -5 29 -29 61 -54 116 -90 234 -201 336 -316 31 -35 63 -72
72 -81 31 -33 147 -216 177 -280 39 -83 73 -170 66 -170 -3 0 -2 -6 3 -12 4
-7 8 -17 9 -23 1 -5 6 -28 12 -50 26 -95 35 -173 35 -300 0 -115 -3 -141 -29
-259 -16 -76 -18 -83 -26 -106 -3 -8 -13 -36 -23 -62 -9 -27 -20 -48 -23 -49
-38 -6 -292 -2 -292 4 0 5 -5 5 -12 1 -17 -11 -138 -11 -138 -1 0 5 -5 5 -12
1 -16 -10 -139 -11 -145 -1 -2 4 -12 3 -22 -3 -10 -5 -20 -7 -23 -5 -2 3 -67
7 -144 10 -76 3 -161 7 -189 9 -86 7 -199 18 -219 22 -10 2 -44 6 -75 9 -31 4
-63 8 -71 10 -8 2 -37 7 -65 11 -27 3 -59 8 -70 10 -22 4 -66 12 -107 18 -15
3 -31 7 -36 9 -4 3 -27 8 -50 12 -23 3 -107 24 -185 46 -78 22 -146 41 -152
42 -5 2 -35 12 -65 22 -30 11 -57 20 -60 20 -16 5 -49 18 -73 31 -16 7 -33 14
-39 14 -19 0 -273 127 -327 164 -29 20 -57 36 -62 36 -5 0 -9 4 -9 9 0 5 -8
12 -17 15 -10 3 -29 16 -43 29 -14 13 -32 27 -41 33 -44 25 -171 158 -258 270
-18 22 -91 156 -91 165 0 6 -7 24 -16 40 -8 17 -17 38 -19 47 -2 10 -11 42
-19 72 -39 146 -39 321 0 461 8 30 16 59 17 64 2 6 5 15 8 20 4 6 9 23 13 39
4 17 15 41 25 55 9 14 26 45 36 68 11 24 23 43 28 43 4 0 7 7 7 15 0 8 5 15
10 15 6 0 10 7 10 15 0 8 7 15 17 15 9 0 14 3 10 6 -7 7 2 17 65 81 l42 41 19
-56 c80 -239 247 -446 504 -626 29 -20 55 -36 58 -36 3 0 11 -5 18 -10 18 -16
127 -79 127 -74 0 2 18 -7 40 -21 22 -14 41 -25 44 -25 2 0 46 -20 97 -44 91
-42 469 -195 499 -201 8 -2 17 -4 20 -5 3 -1 8 -2 13 -1 4 0 7 -3 7 -8 0 -11
57 -24 90 -21 36 3 88 37 104 68 8 15 13 46 12 70 -2 33 -10 50 -36 77 -19 19
-41 35 -50 35 -10 0 -31 7 -49 16 -17 9 -37 17 -44 18 -7 2 -25 9 -42 15 -16
7 -34 14 -40 15 -14 4 -45 16 -82 32 -17 8 -34 14 -38 14 -11 0 -196 80 -305
131 -118 57 -263 138 -268 151 -2 4 -8 8 -14 8 -16 0 -129 90 -199 160 -36 36
-87 96 -113 133 -46 69 -96 167 -96 190 0 7 -4 17 -9 22 -24 27 -45 161 -45
295 -1 145 23 291 63 385 47 108 116 232 164 292 81 101 324 304 430 358 21
11 43 26 49 33 6 6 13 12 17 12 3 0 6 -60 7 -133z m-1462 -2407 c40 -97 58
-134 105 -205 159 -246 400 -457 693 -607 35 -17 71 -39 82 -47 10 -9 20 -15
22 -13 2 1 26 -7 52 -18 113 -51 309 -122 322 -118 3 1 15 -4 28 -11 13 -7 32
-14 43 -17 30 -6 52 -12 87 -23 17 -5 32 -8 32 -5 0 3 9 0 20 -6 11 -6 33 -13
48 -15 15 -2 54 -11 87 -19 33 -8 77 -17 99 -20 21 -4 42 -9 47 -11 4 -3 29
-7 56 -9 26 -2 55 -7 63 -10 8 -3 35 -8 60 -11 25 -2 61 -6 81 -9 20 -3 58 -7
84 -10 25 -3 51 -9 57 -12 7 -5 8 -2 3 6 -5 8 -4 11 2 7 15 -9 63 -16 173 -23
192 -12 242 -13 621 -15 288 -1 393 -5 416 -14 78 -33 112 -146 64 -214 -44
-62 -60 -65 -336 -66 -137 -1 -261 -5 -273 -9 -45 -15 -81 -64 -82 -112 -2
-42 3 -57 27 -87 32 -41 76 -54 176 -52 l87 1 0 -30 c2 -263 0 -670 -3 -673
-4 -3 -3019 -6 -3092 -3 -6 0 -9 120 -9 343 1 188 2 347 3 352 1 7 407 11
1199 12 658 0 1204 3 1213 5 99 24 125 162 42 225 l-36 27 -1366 1 c-1297 0
-1368 1 -1403 19 -109 53 -101 212 13 260 25 10 80 14 203 14 159 1 170 2 202
24 60 41 75 121 34 178 -32 46 -61 53 -203 55 -70 1 -129 4 -131 6 -18 19 -29
300 -12 311 8 6 8 8 0 8 -11 0 -11 27 1 88 3 15 8 43 11 62 10 59 35 148 54
195 47 111 67 156 87 187 13 21 23 42 23 47 0 5 3 11 8 13 4 2 23 27 42 55 19
29 39 52 44 50 4 -1 18 -27 30 -57z m1286 -2745 c0 -8 -40 -45 -48 -45 -6 0
-14 -9 -17 -20 -3 -11 -9 -20 -13 -20 -4 0 -73 -65 -154 -145 l-146 -144 -186
183 c-102 100 -186 185 -186 187 0 3 169 5 375 5 206 0 375 -1 375 -1z m1162
-10 c-2 -5 -85 -90 -183 -187 l-180 -178 -191 188 -190 188 373 0 c245 -1 373
-4 371 -11z m-746 -353 l197 -194 -201 -199 -200 -199 -203 200 -202 200 199
195 c109 107 202 193 206 192 4 -1 96 -89 204 -195z m818 26 c-2 -18 -7 -60
-10 -93 -3 -33 -7 -71 -10 -85 -3 -14 -7 -47 -9 -75 -2 -27 -4 -50 -5 -50 -1
0 -3 -22 -5 -49 -2 -26 -6 -51 -9 -54 -6 -6 -97 77 -160 146 l-40 43 125 124
c68 69 125 125 126 125 1 0 0 -15 -3 -32z m-1409 -603 l200 -195 -195 -195
c-107 -107 -200 -195 -205 -195 -20 0 -336 320 -341 345 -17 93 -27 75 159
262 95 95 174 172 177 173 3 0 95 -88 205 -195z m1155 26 l171 -168 -6 -44
c-3 -24 -7 -52 -9 -62 -2 -16 -322 -337 -335 -337 -11 0 -36 20 -26 20 6 0 -3
9 -20 20 -16 11 -27 20 -22 20 4 0 -10 15 -30 34 -21 19 -98 93 -171 165
l-132 131 172 171 c165 163 225 219 233 219 3 0 81 -76 175 -169z m-566 -607
l199 -196 -200 -198 -201 -199 -202 198 -202 198 198 196 c110 108 201 197
204 197 3 0 95 -88 204 -196z m-984 -196 c0 -7 -32 -42 -62 -65 -12 -10 -15
-10 -15 0 0 6 -3 46 -8 87 l-7 75 46 -45 c25 -24 46 -48 46 -52z m1656 84 c-4
-7 -17 -109 -19 -149 0 -10 -3 -10 -15 0 -27 22 -62 58 -62 64 0 9 84 92 93
93 5 0 6 -4 3 -8z m-1237 -492 c201 -200 247 -252 207 -237 -8 3 -17 3 -20 0
-8 -8 -68 -8 -89 0 -9 3 -19 2 -22 -3 -4 -6 -13 -7 -24 -1 -9 5 -23 6 -30 1
-8 -4 -26 -4 -42 0 -15 5 -30 6 -33 2 -8 -7 -69 -7 -89 1 -9 3 -19 2 -22 -3
-4 -6 -13 -7 -24 -1 -9 5 -23 6 -30 1 -8 -4 -27 -4 -42 0 -16 5 -31 5 -34 0
-3 -5 -16 -5 -30 0 -15 6 -27 6 -30 0 -4 -7 -13 -6 -25 0 -12 6 -20 6 -22 0
-2 -5 -8 -6 -14 -2 -11 7 -20 55 -30 162 -3 25 -7 51 -10 59 -4 13 210 240
228 241 4 0 106 -99 227 -220z m977 201 c13 -10 20 -21 17 -25 -3 -3 -2 -6 3
-6 6 0 49 -38 96 -85 67 -66 86 -90 83 -108 -2 -12 -7 -47 -10 -77 -3 -30 -7
-70 -10 -88 -2 -19 -6 -37 -10 -40 -7 -8 -635 -12 -648 -5 -7 4 441 453 451
453 2 0 15 -8 28 -19z m136 -705 c3 -5 5 -17 3 -27 -2 -10 -6 -44 -10 -76 -10
-101 -16 -148 -21 -165 -5 -17 -48 -18 -724 -18 l-720 0 -5 23 c-2 12 -7 47
-10 77 -7 75 -15 141 -20 167 -4 15 0 23 12 25 42 8 1489 2 1495 -6z"/>
<path d="M6128 2315 c-2 -2 -59 -6 -128 -9 -69 -3 -134 -8 -145 -10 -11 -2
-45 -7 -76 -10 -59 -7 -72 -9 -154 -26 -60 -12 -77 -16 -135 -31 -25 -6 -49
-12 -55 -13 -5 -1 -14 -4 -20 -7 -5 -3 -48 -18 -94 -34 -226 -73 -410 -191
-558 -358 -23 -26 -39 -47 -35 -47 4 0 2 -4 -5 -8 -17 -11 -111 -177 -119
-210 -4 -15 -10 -31 -14 -37 -10 -15 -31 -86 -35 -120 -2 -16 -4 -30 -5 -30
-17 0 -22 -314 -6 -395 23 -113 54 -194 117 -299 102 -173 363 -358 630 -448
68 -23 137 -44 152 -47 16 -3 43 -9 60 -15 85 -27 281 -58 427 -68 119 -9 499
-8 595 0 125 11 233 26 305 43 14 3 36 8 49 10 28 6 129 31 181 45 19 5 42 11
50 13 12 2 15 24 13 127 0 68 -2 142 -3 164 -4 81 -3 83 32 40 33 -40 108
-117 144 -145 106 -86 311 -186 439 -216 6 -1 44 -11 85 -22 41 -12 91 -23
110 -26 19 -3 44 -8 56 -10 90 -19 232 -28 444 -29 243 -1 364 9 525 43 28 6
59 12 71 14 31 6 186 46 204 53 8 3 23 8 34 10 30 5 205 92 229 113 12 11 30
25 41 33 19 14 20 20 31 177 3 41 7 102 10 135 3 33 7 96 11 140 3 44 11 85
17 90 7 6 12 27 12 48 0 20 2 37 5 37 3 0 5 28 6 63 0 34 4 105 8 157 19 250
1 370 -82 540 -15 30 -30 57 -33 60 -3 3 -12 15 -18 28 -42 80 -198 226 -311
291 -49 29 -105 55 -112 53 -5 -1 -8 3 -8 9 0 6 -7 9 -15 6 -8 -4 -17 -2 -20
3 -9 15 -225 80 -315 94 -19 3 -46 8 -60 10 -110 21 -407 22 -540 2 -19 -3
-54 -8 -77 -10 -60 -8 -213 -43 -270 -62 -26 -9 -52 -18 -58 -19 -60 -14 -221
-98 -312 -161 -76 -53 -70 -48 -151 -127 l-60 -59 4 64 c9 139 14 204 19 224
5 23 -8 29 -80 41 -16 3 -36 10 -42 15 -7 6 -13 8 -13 5 0 -3 -15 -1 -32 3
-18 5 -46 12 -63 14 -16 3 -41 8 -55 11 -123 27 -227 43 -322 51 -40 3 -75 7
-79 10 -4 2 -80 6 -170 10 -90 3 -179 7 -196 8 -18 2 -34 2 -35 1z m272 -359
c89 -6 235 -22 289 -31 62 -11 116 -18 116 -15 0 2 10 -2 22 -9 17 -9 21 -18
17 -39 -6 -36 -11 -88 -13 -133 -1 -36 -2 -36 -38 -33 -21 2 -56 6 -78 9 -87
13 -428 7 -510 -9 -11 -2 -42 -7 -70 -10 -66 -9 -185 -42 -244 -68 -25 -12
-49 -21 -53 -20 -5 1 -8 -2 -8 -8 0 -5 -5 -10 -11 -10 -26 0 -169 -131 -169
-155 0 -6 -8 -22 -17 -35 -10 -14 -19 -29 -20 -35 -1 -5 -7 -30 -13 -55 -15
-60 -7 -203 15 -265 19 -54 68 -135 106 -175 86 -89 247 -166 387 -185 15 -2
27 -4 27 -5 0 -6 135 -12 260 -12 171 0 277 6 293 16 7 4 12 3 12 -3 0 -7 8
-7 26 -1 14 6 29 8 33 5 4 -2 9 -47 9 -99 2 -104 6 -98 -68 -110 -19 -3 -49
-8 -66 -11 -115 -19 -570 -26 -719 -12 -68 7 -217 30 -262 41 -28 7 -61 15
-88 20 -151 32 -356 121 -461 201 -152 116 -212 229 -228 428 -1 15 2 27 7 27
5 0 4 6 -2 13 -6 8 -9 16 -7 18 2 2 6 29 10 59 12 108 48 205 112 296 46 66
159 174 181 174 7 0 13 4 13 8 0 11 201 111 234 116 6 1 16 5 22 8 6 4 22 9
36 12 15 2 35 9 45 14 10 6 20 10 23 10 3 0 23 4 45 8 51 10 54 11 58 14 3 2
24 6 110 20 40 6 83 13 97 16 14 2 75 7 135 10 61 4 111 7 112 8 4 3 209 -2
293 -8z m2143 0 c77 -7 202 -30 240 -45 15 -6 27 -7 27 -4 0 4 5 2 12 -5 7 -7
18 -12 26 -12 22 0 177 -75 219 -106 116 -86 205 -224 221 -344 6 -45 6 -79 4
-156 l-2 -41 -192 2 c-106 1 -196 3 -199 4 -3 0 -6 45 -7 99 0 53 -1 97 -2 97
-1 0 -3 11 -4 25 -10 82 -39 168 -71 208 -109 140 -307 201 -510 157 -178 -38
-339 -217 -370 -410 -2 -11 -7 -38 -10 -60 -4 -22 -8 -47 -10 -55 -2 -8 -4
-25 -4 -37 -1 -19 -7 -23 -31 -23 -16 0 -30 -5 -30 -11 0 -32 64 -252 89 -305
32 -69 48 -90 112 -154 53 -53 73 -68 120 -94 143 -80 306 -117 514 -116 138
1 147 2 329 36 13 2 63 15 111 29 47 14 90 23 94 21 4 -3 5 -24 2 -48 -5 -37
-11 -45 -41 -59 -19 -9 -57 -21 -85 -28 -27 -7 -57 -15 -65 -18 -8 -3 -22 -7
-30 -8 -37 -6 -84 -16 -89 -19 -3 -2 -31 -7 -61 -11 -30 -4 -58 -9 -62 -11
-27 -17 -462 -24 -618 -10 -101 9 -270 41 -322 61 -21 8 -38 12 -38 9 0 -4 -7
-1 -15 6 -8 7 -15 10 -15 7 0 -6 -90 31 -155 65 -247 128 -358 374 -308 685
46 291 192 465 498 593 54 23 169 53 251 66 20 3 46 8 58 10 11 2 62 7 111 10
50 4 91 7 92 8 4 3 158 -2 216 -8z m-1853 -600 c41 -3 86 -9 100 -11 42 -8
114 -17 140 -19 33 -1 39 -11 33 -60 -3 -22 -5 -80 -6 -127 0 -54 -4 -86 -11
-86 -10 0 -71 -9 -126 -18 -14 -3 -47 -7 -75 -9 -27 -3 -77 -8 -110 -12 -115
-11 -361 -11 -446 2 -95 14 -183 49 -216 85 -34 38 -45 94 -26 134 30 62 166
105 383 121 47 4 86 7 87 8 5 4 207 -2 273 -8z"/>
</g>
</svg>
